<svg viewBox="-220 -160 440 300" xmlns="http://www.w3.org/2000/svg">
  <defs>
    <style>
      .controller-body { fill: #e1e1e1; stroke: #888; stroke-width: 0.3; }
      .grip-left { fill: #e1e1e1; stroke: #888; stroke-width: 0.3; }
      .grip-right { fill: #e1e1e1; stroke: #888; stroke-width: 0.3; }
    </style>
  </defs>
  
  <path id="left-grip" class="grip-left" d="M -178.7,-47.5 L -179.0,-46.1 L -179.3,-44.6 L -182.0,-29.8 L -182.3,-28.4 L -182.6,-26.9 L -182.8,-25.4 L -183.1,-23.9 L -183.3,-22.4 L -183.6,-21.0 L -183.8,-19.5 L -184.1,-18.0 L -184.3,-16.5 L -184.6,-15.1 L -184.8,-13.6 L -185.1,-12.1 L -185.3,-10.6  L -185.6,-9.1 L -185.8,-7.7 L -186.1,-6.2 L -186.3,-4.7 L -186.6,-3.2 L -186.8,-1.7 L -187.1,-0.3 L -187.3,1.2 L -187.6,2.7 L -187.8,4.2 L -188.3,7.1 L -188.5,8.6 L -188.8,10.1 L -189.0,11.6 L -189.3,13.1 L -189.5,14.5 L -190.0,17.5 L -190.2,19.0 L -190.5,20.5 L -190.7,21.9 L -191.2,24.9 L -191.4,26.4 L -191.7,27.9 L -191.9,29.3 L -192.4,32.3 L -192.6,33.8 L -193.1,36.8 L -193.3,38.2 L -193.8,41.2 L -194.0,42.7 L -194.7,47.1 L -194.9,48.6 L -199.0,82.9 L -199.1,84.4 L -199.1,85.9 L -199.2,87.4 L -199.2,88.9 L -199.1,94.9 L -198.9,96.4 L -198.8,97.8 L -198.5,99.3 L -198.3,100.8 L -198.0,102.3 L -197.7,103.7 L -197.4,105.2 L -197.0,106.7 L -196.6,108.1 L -195.7,111.0 L -195.2,112.4 L -194.1,115.2 L -193.5,116.5 L -192.8,117.9 L -192.1,119.2 L -190.6,121.8 L -189.8,123.1 L -188.9,124.3 L -187.0,126.6 L -186.0,127.7 L -183.9,129.8 L -182.7,130.8 L -180.3,132.6 L -179.1,133.4 L -177.8,134.1 L -176.4,134.8 L -175.1,135.5 L -173.7,136.0 L -169.4,137.3 L -167.9,137.7 L -166.5,138.0 L -165.0,138.3 L -163.5,138.4 L -162.0,138.4 L -160.5,138.3 L -159.0,138.0 L -157.6,137.7 L -156.1,137.3 L -154.7,136.9 L -153.2,136.5 L -151.8,136.0 L -150.4,135.4 L -149.1,134.8 L -147.7,134.1 L -146.5,133.3 L -145.2,132.5 L -144.0,131.6 L -142.8,130.6 L -141.7,129.6 L -139.6,127.5 L -138.6,126.4 L -137.7,125.2 L -135.1,121.5 L -134.3,120.3 L -133.5,119.0 L -131.9,116.5 L -131.1,115.2 L -128.8,111.3 L -128.0,110.1 L -127.2,108.8 L -126.5,107.5 L -125.7,106.2 L -125.0,104.9 L -124.2,103.6 L -123.5,102.3 L -122.0,99.6  L -121.3,98.3 L -115.8,87.7 L -115.1,86.4 L -114.4,85.0 L -113.7,83.7 L -112.3,81.0 L -111.6,79.7 L -110.1,77.1 L -109.4,75.8 L -108.0,73.1 L -107.2,71.8 L -106.4,70.6 L -105.7,69.3 L -104.8,68.0 L -104.0,66.8 L -103.1,65.6 L -101.1,63.3 L -100.0,62.3 L -98.8,61.4 L -97.6,60.6 L -97.9,59.5 L -98.8,58.3 L -101.5,54.6 L -102.4,53.4 Z"/>
  <path id="right-grip" class="grip-right" d="M 178.7,-47.5 L 179.0,-46.1 L 179.3,-44.6 L 182.0,-29.8 L 182.3,-28.4 L 182.6,-26.9 L 182.8,-25.4 L 183.1,-23.9 L 183.3,-22.4 L 183.6,-21.0 L 183.8,-19.5 L 184.1,-18.0 L 184.3,-16.5 L 184.6,-15.1 L 184.8,-13.6 L 185.1,-12.1 L 185.3,-10.6 L 185.6,-9.1 L 185.8,-7.7 L 186.1,-6.2 L 186.3,-4.7 L 186.6,-3.2 L 186.8,-1.7 L 187.1,-0.3 L 187.3,1.2 L 187.6,2.7 L 187.8,4.2 L 188.3,7.1 L 188.5,8.6 L 188.8,10.1 L 189.0,11.6 L 189.3,13.1 L 189.5,14.5 L 190.0,17.5 L 190.2,19.0 L 190.5,20.5 L 190.7,21.9 L 191.2,24.9 L 191.4,26.4 L 191.7,27.9 L 191.9,29.3 L 192.4,32.3 L 192.6,33.8 L 193.1,36.8 L 193.3,38.2 L 193.8,41.2 L 194.0,42.7 L 194.7,47.1 L 194.9,48.6 L 199.0,82.9 L 199.1,84.4 L 199.1,85.9 L 199.2,87.4 L 199.2,88.9 L 199.1,94.9 L 198.9,96.4 L 198.8,97.8 L 198.5,99.3 L 198.3,100.8 L 198.0,102.3 L 197.7,103.7 L 197.4,105.2 L 197.0,106.7 L 196.6,108.1 L 195.7,111.0 L 195.2,112.4 L 194.1,115.2 L 193.5,116.5 L 192.8,117.9 L 192.1,119.2 L 190.6,121.8 L 189.8,123.1 L 188.9,124.3 L 187.0,126.6 L 186.0,127.7 L 183.9,129.8 L 182.7,130.8 L 180.3,132.6 L 179.1,133.4 L 177.8,134.1 L 176.4,134.8 L 175.1,135.5 L 173.7,136.0 L 169.4,137.3 L 167.9,137.7 L 166.5,138.0 L 165.0,138.3 L 163.5,138.4 L 162.0,138.4 L 160.5,138.3 L 159.0,138.0 L 157.6,137.7 L 156.1,137.3 L 154.7,136.9 L 153.2,136.5 L 151.8,136.0 L 150.4,135.4 L 149.1,134.8 L 147.7,134.1 L 146.5,133.3 L 145.2,132.5 L 144.0,131.6 L 142.8,130.6 L 141.7,129.6 L 139.6,127.5 L 138.6,126.4 L 137.7,125.2 L 135.1,121.5 L 134.3,120.3 L 133.5,119.0 L 131.9,116.5 L 131.1,115.2 L 128.8,111.3 L 128.0,110.1 L 127.2,108.8 L 126.5,107.5 L 125.7,106.2 L 125.0,104.9 L 124.2,103.6 L 123.5,102.3 L 122.0,99.6 L 121.3,98.3 L 115.8,87.7 L 115.1,86.4 L 114.4,85.0 L 113.7,83.7 L 112.3,81.0 L 111.6,79.7 L 110.1,77.1 L 109.4,75.8 L 108.0,73.1 L 107.2,71.8 L 106.4,70.6 L 105.7,69.3 L 104.8,68.0 L 104.0,66.8 L 103.1,65.6 L 101.1,63.3 L 100.0,62.3 L 98.8,61.4 L 97.6,60.6 L 97.9,59.5 L 98.8,58.3 L 101.5,54.6 L 102.4,53.4 Z"/>
  <path class="controller-body" d="M -0.7,-129.1 L -54.3,-129.1 L -55.0,-129.1 L -57.8,-129.0 L -58.5,-129.0 L -60.7,-128.9 L -61.4,-128.9 L -62.8,-128.8 L -63.5,-128.8 L -65.7,-128.7 L -66.4,-128.7 L -67.8,-128.6 L -68.5,-128.6 L -69.2,-128.5 L -70.0,-128.5 L -70.7,-128.4 L -71.4,-128.4 L -72.1,-128.3 L -72.8,-128.3 L -73.5,-128.2 L -74.2,-128.2 L -74.9,-128.1 L -75.7,-128.1 L -76.4,-128.0 L -77.1,-128.0 L -77.8,-127.9 L -78.5,-127.9 L -79.2,-127.8 L -80.6,-127.7 L -81.4,-127.6 L -82.1,-127.5 L -82.8,-127.5 L -83.5,-127.4 L -84.9,-127.3 L -85.6,-127.2 L -87.0,-127.1 L -87.7,-127.0 L -88.5,-126.9 L -89.2,-126.8 L -89.9,-126.8 L -90.6,-126.7 L -94.1,-126.3 L -94.8,-126.2 L -113.2,-123.3 L -113.9,-123.2 L -114.6,-123.0 L -115.3,-122.9 L -116.7,-122.6 L -117.4,-122.5 L -118.1,-122.3 L -118.8,-122.2 L -119.5,-122.0 L -120.9,-121.7 L -121.6,-121.5 L -122.3,-121.4 L -122.9,-121.2 L -123.6,-121.0 L -126.4,-120.3 L -127.1,-120.1 L -127.8,-119.8 L -128.4,-119.6 L -129.1,-119.4 L -131.2,-118.7 L -132.5,-118.3 L -133.2,-118.0 L -133.8,-117.7 L -134.5,-117.4 L -135.1,-117.2 L -135.8,-116.9 L -136.4,-116.5 L -137.0,-116.2 L -137.7,-115.8 L -138.3,-115.4 L -138.9,-115.1 L -139.5,-114.7 L -160.0,-100.5 L -160.5,-100.0 L -162.5,-97.9 L -162.9,-97.4 L -163.4,-96.8 L -163.8,-96.2 L -165.3,-93.8 L -165.7,-93.2 L -166.0,-92.6 L -166.4,-91.9 L -166.7,-91.3 L -167.3,-90.0 L -167.6,-89.4 L -167.8,-88.7 L -168.1,-88.0 L -168.4,-87.4 L -168.6,-86.7 L -168.9,-86.0 L -169.1,-85.4 L -169.3,-84.7 L -169.6,-84.0 L -169.8,-83.3 L -170.2,-82.0 L -170.4,-81.3 L -172.8,-72.3 L -173.0,-71.6 L -173.5,-69.5 L -173.7,-68.8 L -173.9,-68.2 L -174.0,-67.5 L -174.2,-66.8 L -174.5,-65.4 L -174.7,-64.7 L -174.8,-64.0 L -175.0,-63.3 L -175.3,-61.9 L -175.5,-61.2 L -175.8,-59.8 L -176.0,-59.1 L -176.1,-58.4 L -176.3,-57.7 L -176.6,-56.3 L -176.8,-55.6 L -176.9,-54.9 L -177.1,-54.2 L -177.3,-53.6 L -177.4,-52.9 L -177.6,-52.2 L -177.9,-50.8 L -178.1,-50.1 L -178.2,-49.4 L -178.2,-48.7 L -177.8,-48.1 L -177.1,-46.9 L -176.7,-46.3 L -176.4,-45.6 L -176.0,-45.0 L -175.3,-43.8 L -174.9,-43.2 L -174.2,-42.0 L -173.4,-40.7 L -173.1,-40.1 L -172.7,-39.5 L -172.0,-38.3 L -171.6,-37.7 L -170.5,-35.9 L -170.1,-35.3 L -169.7,-34.6 L -169.3,-34.0 L -168.6,-32.8 L -168.2,-32.2 L -166.3,-29.2 L -165.9,-28.6 L -163.2,-24.4 L -162.8,-23.8 L -141.8,6.8 L -141.4,7.4 L -139.4,10.3 L -139.0,10.9 L -138.5,11.5 L -138.1,12.1 L -137.3,13.2 L -136.9,13.8 L -136.0,15.0 L -135.6,15.6 L -135.2,16.1 L -134.8,16.7 L -133.9,17.9 L -133.5,18.4 L -133.1,19.0 L -131.8,20.7 L -131.4,21.3 L -130.1,23.0 L -129.7,23.6 L -128.4,25.3 L -128.0,25.9 L -126.7,27.6 L -126.3,28.2 L -125.4,29.3 L -125.0,29.9 L -124.1,31.0 L -123.7,31.6 L -122.8,32.7 L -122.4,33.3 L -121.5,34.4 L -121.1,35.0 L -120.6,35.6 L -120.2,36.1 L -119.7,36.7 L -119.3,37.2 L -118.9,37.8 L -118.4,38.4 L -118.0,38.9 L -117.5,39.5 L -117.1,40.0 L -116.6,40.6 L -116.2,41.1 L -115.7,41.7 L -115.2,42.2 L -114.8,42.8 L -114.3,43.3 L -113.9,43.9 L -113.4,44.4 L -112.4,45.5 L -112.0,46.0 L -111.5,46.5 L -110.5,47.6 L -110.0,48.1 L -109.6,48.6 L -109.1,49.2 L -108.6,49.7 L -107.7,50.8 L -107.2,51.3 L -105.7,52.9 L -105.3,53.4 L -104.8,53.9 L -104.3,54.5 L -103.8,55.0 L -100.7,58.0 L -100.2,58.4 L -99.7,58.9 L -99.1,59.3 L -97.2,60.3 L -96.5,60.1 L -95.9,59.7 L -95.3,59.4 L -94.6,59.1 L -93.9,58.9 L -92.6,58.5 L -91.9,58.4 L -91.2,58.2 L -90.5,58.1 L -89.7,58.0 L -89.0,57.9 L -86.2,57.6 L -85.5,57.5 L -84.1,57.4 L -83.4,57.3 L -82.6,57.3 L -81.9,57.2 L -81.2,57.2 L -80.5,57.1 L -79.8,57.1 L -78.4,57.0 L -77.7,57.0 L -75.5,56.9 L -74.8,56.9 L -71.9,56.8 L -71.2,56.8 L 0.0,56.8 L 71.2,56.8 L 71.9,56.8 L 74.8,56.9 L 75.5,56.9 L 77.7,57.0 L 78.4,57.0 L 79.8,57.1 L 80.5,57.1 L 81.2,57.2 L 81.9,57.2 L 82.6,57.3 L 83.4,57.3 L 84.1,57.4 L 85.5,57.5 L 86.2,57.6 L 89.0,57.9 L 89.7,58.0 L 90.5,58.1 L 91.2,58.2 L 91.9,58.4 L 92.6,58.5 L 93.9,58.9 L 94.6,59.1 L 95.3,59.4 L 95.9,59.7 L 96.5,60.1 L 97.2,60.3 L 99.1,59.3 L 99.7,58.9 L 100.2,58.4 L 100.7,58.0 L 103.8,55.0 L 104.3,54.5 L 104.8,53.9 L 105.3,53.4 L 105.7,52.9 L 107.2,51.3 L 107.7,50.8 L 108.6,49.7 L 109.1,49.2 L 109.6,48.6 L 110.0,48.1 L 110.5,47.6 L 111.5,46.5 L 112.0,46.0 L 112.4,45.5 L 113.4,44.4 L 113.9,43.9 L 114.3,43.3 L 114.8,42.8 L 115.2,42.2 L 115.7,41.7 L 116.2,41.1 L 116.6,40.6 L 117.1,40.0 L 117.5,39.5 L 118.0,38.9 L 118.4,38.4 L 118.9,37.8 L 119.3,37.2 L 119.7,36.7 L 120.2,36.1 L 120.6,35.6 L 121.1,35.0 L 121.5,34.4 L 122.4,33.3 L 122.8,32.7 L 123.7,31.6 L 124.1,31.0 L 125.0,29.9 L 125.4,29.3 L 126.3,28.2 L 126.7,27.6 L 128.0,25.9 L 128.4,25.3 L 129.7,23.6 L 130.1,23.0 L 131.4,21.3 L 131.8,20.7 L 133.1,19.0 L 133.5,18.4 L 133.9,17.9 L 134.8,16.7 L 135.2,16.1 L 135.6,15.6 L 136.0,15.0 L 136.9,13.8 L 137.3,13.2 L 138.1,12.1 L 138.5,11.5 L 139.0,10.9 L 139.4,10.3 L 141.4,7.4 L 141.8,6.8 L 162.8,-23.8 L 163.2,-24.4 L 165.9,-28.6 L 166.3,-29.2 L 168.2,-32.2 L 168.6,-32.8 L 169.3,-34.0 L 169.7,-34.6 L 170.1,-35.3 L 170.5,-35.9 L 171.6,-37.7 L 172.0,-38.3 L 172.7,-39.5 L 173.1,-40.1 L 173.4,-40.7 L 174.2,-42.0 L 174.9,-43.2 L 175.3,-43.8 L 176.0,-45.0 L 176.4,-45.6 L 176.7,-46.3 L 177.1,-46.9 L 177.8,-48.1 L 178.2,-48.7 L 178.2,-49.4 L 178.1,-50.1 L 177.9,-50.8 L 177.6,-52.2 L 177.4,-52.9 L 177.3,-53.6 L 177.1,-54.2 L 176.9,-54.9 L 176.8,-55.6 L 176.6,-56.3 L 176.3,-57.7 L 176.1,-58.4 L 176.0,-59.1 L 175.8,-59.8 L 175.5,-61.2 L 175.3,-61.9 L 175.0,-63.3 L 174.8,-64.0 L 174.7,-64.7 L 174.5,-65.4 L 174.2,-66.8 L 174.0,-67.5 L 173.9,-68.2 L 173.7,-68.8 L 173.5,-69.5 L 173.0,-71.6 L 172.8,-72.3 L 170.4,-81.3 L 170.2,-82.0 L 169.8,-83.3 L 169.6,-84.0 L 169.3,-84.7 L 169.1,-85.4 L 168.9,-86.0 L 168.6,-86.7 L 168.4,-87.4 L 168.1,-88.0 L 167.8,-88.7 L 167.6,-89.4 L 167.3,-90.0 L 166.7,-91.3 L 166.4,-91.9 L 166.0,-92.6 L 165.7,-93.2 L 165.3,-93.8 L 163.8,-96.2 L 163.4,-96.8 L 162.9,-97.4 L 162.5,-97.9 L 160.5,-100.0 L 160.0,-100.5 L 139.5,-114.7 L 138.9,-115.1 L 138.3,-115.4 L 137.7,-115.8 L 137.0,-116.2 L 136.4,-116.5 L 135.8,-116.9 L 135.1,-117.2 L 134.5,-117.4 L 133.8,-117.7 L 133.2,-118.0 L 132.5,-118.3 L 131.2,-118.7 L 129.1,-119.4 L 128.4,-119.6 L 127.8,-119.8 L 127.1,-120.1 L 126.4,-120.3 L 123.6,-121.0 L 122.9,-121.2 L 122.3,-121.4 L 121.6,-121.5 L 120.9,-121.7 L 119.5,-122.0 L 118.8,-122.2 L 118.1,-122.3 L 117.4,-122.5 L 116.7,-122.6 L 115.3,-122.9 L 114.6,-123.0 L 113.9,-123.2 L 113.2,-123.3 L 94.8,-126.2 L 94.1,-126.3 L 90.6,-126.7 L 89.9,-126.8 L 89.2,-126.8 L 88.5,-126.9 L 87.7,-127.0 L 87.0,-127.1 L 85.6,-127.2 L 84.9,-127.3 L 83.5,-127.4 L 82.8,-127.5 L 82.1,-127.5 L 81.4,-127.6 L 80.6,-127.7 L 79.2,-127.8 L 78.5,-127.9 L 77.8,-127.9 L 77.1,-128.0 L 76.4,-128.0 L 75.7,-128.1 L 74.9,-128.1 L 74.2,-128.2 L 73.5,-128.2 L 72.8,-128.3 L 72.1,-128.3 L 71.4,-128.4 L 70.7,-128.4 L 70.0,-128.5 L 69.2,-128.5 L 68.5,-128.6 L 67.8,-128.6 L 66.4,-128.7 L 65.7,-128.7 L 63.5,-128.8 L 62.8,-128.8 L 61.4,-128.9 L 60.7,-128.9 L 58.5,-129.0 L 57.8,-129.0 L 55.0,-129.1 L 54.3,-129.1 L 0.7,-129.1 Z"/>
</svg>