<svg xmlns="http://www.w3.org/2000/svg" viewBox="1.5 1 32 33"><path fill="currentColor" d="M13.2 18.456H8.475a1.25 1.25 0 1 1 0-2.5H13.2a1.25 1.25 0 0 1 0 2.5"/><path fill="currentColor" d="M10.839 20.82a1.25 1.25 0 0 1-1.25-1.25v-4.729a1.25 1.25 0 0 1 2.5 0v4.729a1.25 1.25 0 0 1-1.25 1.25M20.954 18.515a1.251 1.251 0 0 0 0-2.5 1.251 1.251 0 0 0 0 2.5M23.8 15.67a1.251 1.251 0 0 0 0-2.5 1.251 1.251 0 0 0 0 2.5M23.68 21.241a1.251 1.251 0 0 0 0-2.5 1.251 1.251 0 0 0 0 2.5M26.525 18.4a1.251 1.251 0 0 0 0-2.5 1.251 1.251 0 0 0 0 2.5"/><path fill="currentColor" d="M28.886 34.75a4.9 4.9 0 0 1-4.752-3.663l-1.4-4.1a20.45 20.45 0 0 1-10.436-.068l-1.456 4.257a4.72 4.72 0 0 1-1.717 2.549 4.905 4.905 0 0 1-7.9-3.836V19.2c0-.31.038-.868.054-1.08l-.052-.945A10.494 10.494 0 0 1 11.693 6.641a10.4 10.4 0 0 1 3.728.686 3.8 3.8 0 0 0 1.373.235h1.412a3.8 3.8 0 0 0 1.353-.227 10.3 10.3 0 0 1 3.941-.692A10.674 10.674 0 0 1 33.781 17.42v12.472a4.88 4.88 0 0 1-4.895 4.858M23.5 24.141a1.25 1.25 0 0 1 1.183.846l1.841 5.384a2.44 2.44 0 0 0 2.359 1.879 2.38 2.38 0 0 0 2.395-2.358V17.42a8.163 8.163 0 0 0-7.822-8.277 7.8 7.8 0 0 0-3 .524 6.3 6.3 0 0 1-2.255.395h-1.407a6.3 6.3 0 0 1-2.269-.4 7.9 7.9 0 0 0-2.832-.52 7.98 7.98 0 0 0-7.974 7.965l.054.955a2 2 0 0 1 0 .2c-.011.141-.05.66-.05.938v10.692a2.406 2.406 0 0 0 3.871 1.86 2.35 2.35 0 0 0 .855-1.29l1.869-5.475a1.25 1.25 0 0 1 1.59-.777c.062.02 6.155 2.075 11.123.025a1.3 1.3 0 0 1 .469-.094M20.01 8.5"/><path fill="currentColor" d="M18.294 7.261a1.23 1.23 0 0 1-.105-1.184 1.9 1.9 0 0 1 .874-1.04 4.97 4.97 0 0 1 3.637-.163 8.2 8.2 0 0 0 4.595.142A3.68 3.68 0 0 0 29.854 1.5 1.28 1.28 0 0 0 28.6.25a1.26 1.26 0 0 0-1.25 1.25c.066 1.244-1.558 1.378-2.5 1.266-1.574-.186-3.049-.792-4.663-.617a5.18 5.18 0 0 0-3.917 2.183 3.98 3.98 0 0 0-.137 4.19c.836 1.372 3 .117 2.158-1.261Z"/></svg>