<svg xmlns="http://www.w3.org/2000/svg" viewBox="-250 -170 500 325" id="GCController">
  <!-- Joystick Visualization Areas -->
  <g class="raw-joysticks" transform="translate(0, -125)">
    <g class="left-stick-visual" transform="translate(-198, 0)">
      <circle class="joystick-range" cx="0" cy="0" r="45"/>
      <circle class="joystick-deadzone" cx="0" cy="0" r="6.75"/>
      <circle class="joystick-dot-raw" cx="0" cy="0" r="2"/>
      <circle class="joystick-dot-calibrated" cx="0" cy="0" r="2"/>
    </g>

    <g class="right-stick-visual" transform="translate(198, 0)">
      <circle class="joystick-range" cx="0" cy="0" r="45"/>
      <circle class="joystick-deadzone" cx="0" cy="0" r="6.75"/>
      <circle class="joystick-dot-raw" cx="0" cy="0" r="2"/>
      <circle class="joystick-dot-calibrated" cx="0" cy="0" r="2"/>
    </g>
  </g>

  <!-- Main controller body -->
  <path class="outline primary" d="M 0,-138.03 L -4.91,-138.01 -8.02,-137.94 -11.14,-137.82 -14.25,-137.67 -17.37,-137.48 -20.48,-137.25 -23.59,-137.0 -26.69,-136.72 -29.8,-136.41 -32.9,-136.07 -35.99,-135.71 -39.09,-135.32 -42.18,-134.91 -45.27,-134.48 -48.35,-134.03 -51.43,-133.55 -54.51,-133.05 -57.59,-132.52 -60.66,-131.98 -63.72,-131.41 -66.78,-130.81 -69.84,-130.2 -72.89,-129.56 -75.94,-128.89 -78.98,-128.21 -82.02,-127.49 -85.05,-126.75 -88.07,-125.99 -91.09,-125.19 -94.1,-124.37 -97.1,-123.52 -100.09,-122.64 -103.07,-121.72 -106.04,-120.77 -109.0,-119.79 -111.95,-118.77 -114.88,-117.71 -117.8,-116.61 -120.7,-115.46 -123.58,-114.27 -126.44,-113.03 -129.27,-111.73 -132.08,-110.38 -134.86,-108.96 -137.6,-107.47 -140.3,-105.91 -142.95,-104.27 -145.55,-102.54 -148.07,-100.71 -150.51,-98.77 -152.86,-96.71 -155.09,-94.54 -157.23,-92.27 -159.26,-89.9 -161.2,-87.46 -163.04,-84.94 -164.78,-82.35 -166.42,-79.7 -167.97,-77.0 -169.43,-74.24 -170.8,-71.44 -172.09,-68.6 -173.29,-65.72 -174.41,-62.81 -175.45,-59.87 -176.42,-56.91 -177.31,-53.92 -178.14,-50.91 -178.9,-47.89 -179.6,-44.85 -180.24,-41.8 -180.82,-38.73 -181.34,-35.66 -181.8,-32.57 -182.21,-29.48 -182.57,-26.38 -182.88,-23.28 -183.15,-20.17 -183.36,-17.06 -183.54,-13.95 -183.71,-10.84 -184.0,-7.73 -184.23,-4.62 -184.44,-1.51 -184.62,1.6 -184.79,4.72 -184.95,7.83 -185.11,10.95 -185.25,14.06 -185.38,17.18 -185.51,20.29 -185.63,23.41 -185.74,26.53 -185.85,29.64 -185.95,32.76 -186.04,35.88 -186.12,39.0 -186.19,42.11 -186.26,45.23 -186.32,48.35 -186.37,51.47 -186.41,54.59 -186.44,57.7 -186.46,60.82 -186.46,63.94 -186.44,70.18 -186.41,73.3 -186.36,76.42 -186.3,79.53 -186.22,82.65 -186.12,85.77 -185.99,88.88 -185.84,92.0 -185.66,95.11 -185.44,98.22 -185.17,101.33 -184.85,104.43 -184.46,107.53 -183.97,110.61 -183.37,113.67 -182.65,116.7 -181.77,119.69 -180.71,122.62 -179.43,125.47 -177.89,128.18 -176.05,130.69 -173.88,132.92 -171.36,134.75 -168.55,136.1 -165.55,136.93 -162.45,137.29 -156.23,137.03 -153.18,136.41 -150.46,134.9 -148.14,132.83 -146.14,130.43 -144.39,127.85 -142.83,125.16 -141.41,122.38 -140.11,119.54 -138.9,116.67 -137.77,113.76 -136.7,110.84 -135.68,107.89 -134.71,104.93 -133.77,101.95 -132.86,98.97 -131.97,95.98 -131.09,92.99 -130.23,89.99 -129.36,86.99 -128.49,84.0 -127.63,81.0 -126.76,78.01 -125.9,75.01 -124.17,69.02 -123.31,66.02 -121.59,60.03 -120.72,57.03 -119.86,54.03 -118.13,48.04 -117.27,45.04 -115.55,39.05 -114.68,36.05 -113.82,33.05 -112.96,30.06 -110.4,28.29 -107.81,26.55 -105.23,24.8 -97.48,19.55 -94.9,17.81 -92.32,16.06 -87.15,12.56 -84.57,10.81 -81.99,9.07 -79.4,7.32 -76.82,5.57 -69.07,0.33 -66.49,-1.42 -58.74,-6.66 -56.16,-8.41 -48.4,-13.64 -45.72,-15.22 -42.93,-16.62 -40.07,-17.86 -37.15,-18.96 -34.19,-19.94 -31.19,-20.79 -28.16,-21.55 -25.12,-22.21 -22.05,-22.79 -18.97,-23.28 -15.88,-23.7 -12.78,-24.05 -9.68,-24.33 -6.57,-24.55 -3.45,-24.69 0,-24.69 L 3.45,-24.69 6.57,-24.55 9.68,-24.33 12.78,-24.05 15.88,-23.7 18.97,-23.28 22.05,-22.79 25.12,-22.21 28.16,-21.55 31.19,-20.79 34.19,-19.94 37.15,-18.96 40.07,-17.86 42.93,-16.62 45.72,-15.22 48.4,-13.64 56.16,-8.41 58.74,-6.66 66.49,-1.42 69.07,0.33 76.82,5.57 79.4,7.32 81.99,9.07 84.57,10.81 87.15,12.56 92.32,16.06 94.9,17.81 97.48,19.55 105.23,24.8 107.81,26.55 110.4,28.29 112.96,30.06 113.82,33.05 114.68,36.05 115.55,39.05 117.27,45.04 118.13,48.04 119.86,54.03 120.72,57.03 121.59,60.03 123.31,66.02 124.17,69.02 125.9,75.01 126.76,78.01 127.63,81.0 128.49,84.0 129.36,86.99 130.23,89.99 131.09,92.99 131.97,95.98 132.86,98.97 133.77,101.95 134.71,104.93 135.68,107.89 136.7,110.84 137.77,113.76 138.9,116.67 140.11,119.54 141.41,122.38 142.83,125.16 144.39,127.85 146.14,130.43 148.14,132.83 150.46,134.9 153.18,136.41 156.23,137.03 162.45,137.29 165.55,136.93 168.55,136.1 171.36,134.75 173.88,132.92 176.05,130.69 177.89,128.18 179.43,125.47 180.71,122.62 181.77,119.69 182.65,116.7 183.37,113.67 183.97,110.61 184.46,107.53 184.85,104.43 185.17,101.33 185.44,98.22 185.66,95.11 185.84,92.0 185.99,88.88 186.12,85.77 186.22,82.65 186.3,79.53 186.36,76.42 186.41,73.3 186.44,70.18 186.46,63.94 186.46,60.82 186.44,57.7 186.41,54.59 186.37,51.47 186.32,48.35 186.26,45.23 186.19,42.11 186.12,39.0 186.04,35.88 185.95,32.76 185.85,29.64 185.74,26.53 185.63,23.41 185.51,20.29 185.38,17.18 185.25,14.06 185.11,10.95 184.95,7.83 184.79,4.72 184.62,1.6 184.44,-1.51 184.23,-4.62 184.0,-7.73 183.71,-10.84 183.54,-13.95 183.36,-17.06 183.15,-20.17 182.88,-23.28 182.57,-26.38 182.21,-29.48 181.8,-32.57 181.34,-35.66 180.82,-38.73 180.24,-41.8 179.6,-44.85 178.9,-47.89 178.14,-50.91 177.31,-53.92 176.42,-56.91 175.45,-59.87 174.41,-62.81 173.29,-65.72 172.09,-68.6 170.8,-71.44 169.43,-74.24 167.97,-77.0 166.42,-79.7 164.78,-82.35 163.04,-84.94 161.2,-87.46 159.26,-89.9 157.23,-92.27 155.09,-94.54 152.86,-96.71 150.51,-98.77 148.07,-100.71 145.55,-102.54 142.95,-104.27 140.3,-105.91 137.6,-107.47 134.86,-108.96 132.08,-110.38 129.27,-111.73 126.44,-113.03 123.58,-114.27 120.7,-115.46 117.8,-116.61 114.88,-117.71 111.95,-118.77 109.0,-119.79 106.04,-120.77 103.07,-121.72 100.09,-122.64 97.1,-123.52 94.1,-124.37 91.09,-125.19 88.07,-125.99 85.05,-126.75 82.02,-127.49 78.98,-128.21 75.94,-128.89 72.89,-129.56 69.84,-130.2 66.78,-130.81 63.72,-131.41 60.66,-131.98 57.59,-132.52 54.51,-133.05 51.43,-133.55 48.35,-134.03 45.27,-134.48 42.18,-134.91 39.09,-135.32 35.99,-135.71 32.9,-136.07 29.8,-136.41 26.69,-136.72 23.59,-137.0 20.48,-137.25 17.37,-137.48 14.25,-137.67 11.14,-137.82 8.02,-137.94 4.91,-138.01 0,-138.03 Z"/>

  <!-- Left handle -->
  <path class="outline left-handle" d="M -74.59,-97.22 -70.17,-94.19 -65.95,-90.89 -62.06,-87.21 -58.58,-83.14 -55.58,-78.7 -53.08,-73.97 -51.05,-69.01 -49.46,-63.89 -48.24,-58.67 -47.36,-53.39 -46.59,-48.09 -45.7,-42.8 -44.69,-37.54 -43.54,-32.31 -42.25,-27.11 -40.8,-21.95 -39.19,-16.84 -37.38,-11.8 -35.34,-6.84 -33.04,-2.0 -30.39,2.65 -27.26,7.0 -23.84,11.11 -21.19,15.76 -19.18,20.73 -17.73,25.88 -16.82,31.16 -16.46,36.5 -16.7,41.85 -17.63,47.13 -19.31,52.21 -21.8,56.95 -24.91,61.3 -28.41,65.36 -32.28,69.06 -36.51,72.35 -41.09,75.13 -45.97,77.32 -51.1,78.86 -56.39,79.7 -61.74,79.84 -67.07,79.3 -72.3,78.15 -77.39,76.48 -82.29,74.31 -86.76,71.37 -90.7,67.75 -94.16,63.66 -97.27,59.3 -100.21,54.81 -103.09,50.3 -106.03,45.82 -109.11,41.44 -112.37,37.19 -115.85,33.11 -119.54,29.22 -123.45,25.56 -127.55,22.11 -131.77,18.81 -136.04,15.57 -140.34,12.37 -144.62,9.15 -148.86,5.88 -153.03,2.51 -157.05,-1.03 -160.83,-4.83 -164.12,-9.05 -166.71,-13.73 -168.91,-18.62 -170.77,-23.64 -172.3,-28.78 -173.49,-34.0 -174.3,-39.3 -174.72,-44.64 -174.72,-49.99 -174.28,-55.33 -173.37,-60.61 -172.0,-65.79 -170.17,-70.82 -167.79,-75.62 -164.84,-80.09 -161.43,-84.22 -157.67,-88.03 -153.63,-91.55 -149.37,-94.81 -144.94,-97.82 -140.37,-100.61 -135.65,-103.16 -130.73,-105.26 -125.62,-106.86 -120.37,-107.95 -115.05,-108.56 -109.7,-108.69 -104.35,-108.36 -99.05,-107.6 -93.82,-106.41 -88.72,-104.79 -83.78,-102.7 Z"/>

  <!-- Right handle -->
  <path class="outline right-handle" d="M 74.59,-97.22 70.17,-94.19 65.95,-90.89 62.06,-87.21 58.58,-83.14 55.58,-78.7 53.08,-73.97 51.05,-69.01 49.46,-63.89 48.24,-58.67 47.36,-53.39 46.59,-48.09 45.7,-42.8 44.69,-37.54 43.54,-32.31 42.25,-27.11 40.8,-21.95 39.19,-16.84 37.38,-11.8 35.34,-6.84 33.04,-2.0 30.39,2.65 27.26,7.0 23.84,11.11 21.19,15.76 19.18,20.73 17.73,25.88 16.82,31.16 16.46,36.5 16.7,41.85 17.63,47.13 19.31,52.21 21.8,56.95 24.91,61.3 28.41,65.36 32.28,69.06 36.51,72.35 41.09,75.13 45.97,77.32 51.1,78.86 56.39,79.7 61.74,79.84 67.07,79.3 72.3,78.15 77.39,76.48 82.29,74.31 86.76,71.37 90.7,67.75 94.16,63.66 97.27,59.3 100.21,54.81 103.09,50.3 106.03,45.82 109.11,41.44 112.37,37.19 115.85,33.11 119.54,29.22 123.45,25.56 127.55,22.11 131.77,18.81 136.04,15.57 140.34,12.37 144.62,9.15 148.86,5.88 153.03,2.51 157.05,-1.03 160.83,-4.83 164.12,-9.05 166.71,-13.73 168.91,-18.62 170.77,-23.64 172.3,-28.78 173.49,-34.0 174.3,-39.3 174.72,-44.64 174.72,-49.99 174.28,-55.33 173.37,-60.61 172.0,-65.79 170.17,-70.82 167.79,-75.62 164.84,-80.09 161.43,-84.22 157.67,-88.03 153.63,-91.55 149.37,-94.81 144.94,-97.82 140.37,-100.61 135.65,-103.16 130.73,-105.26 125.62,-106.86 120.37,-107.95 115.05,-108.56 109.7,-108.69 104.35,-108.36 99.05,-107.6 93.82,-106.41 88.72,-104.79 83.78,-102.7 Z"/>

  <!-- Left trigger (L button) -->
  <g class="trigger ZL button">
    <path class="shape" d="M -99.69,-125.04 -101.81,-126.51 -104.02,-127.85 -106.3,-129.06 -108.65,-130.12 -111.08,-130.99 -113.58,-131.62 -116.14,-131.97 -121.26,-131.55 -123.74,-130.84 -126.17,-129.95 -128.53,-128.9 -130.82,-127.71 -133.03,-126.38 -135.15,-124.92 -137.18,-123.32 -139.11,-121.6 -140.91,-119.75 -142.55,-117.77 -144.0,-115.63 -145.18,-113.34 -146.17,-110.95 -147.05,-108.53 -147.87,-106.08 -148.64,-103.61 -149.37,-101.14 -149.16,-100.12 -147.12,-101.71 -144.99,-103.16 -142.8,-104.53 -140.57,-105.83 -138.31,-107.08 -136.02,-108.27 -133.71,-109.42 -131.38,-110.53 -129.04,-111.61 -126.68,-112.66 -124.31,-113.68 -121.92,-114.67 -119.53,-115.64 -117.13,-116.58 -114.72,-117.51 -112.3,-118.41 -109.87,-119.29 -107.44,-120.16 -105.0,-121.0 -100.11,-122.65 Z"/>
  </g>

  <!-- Right trigger (R button) -->
  <g class="trigger ZR button">
    <path class="shape" d="M 99.69,-125.04 101.81,-126.51 104.02,-127.85 106.3,-129.06 108.65,-130.12 111.08,-130.99 113.58,-131.62 116.14,-131.97 121.26,-131.55 123.74,-130.84 126.17,-129.95 128.53,-128.9 130.82,-127.71 133.03,-126.38 135.15,-124.92 137.18,-123.32 139.11,-121.6 140.91,-119.75 142.55,-117.77 144.0,-115.63 145.18,-113.34 146.17,-110.95 147.05,-108.53 147.87,-106.08 148.64,-103.61 149.37,-101.14 149.16,-100.12 147.12,-101.71 144.99,-103.16 142.8,-104.53 140.57,-105.83 138.31,-107.08 136.02,-108.27 133.71,-109.42 131.38,-110.53 129.04,-111.61 126.68,-112.66 124.31,-113.68 121.92,-114.67 119.53,-115.64 117.13,-116.58 114.72,-117.51 112.3,-118.41 109.87,-119.29 107.44,-120.16 105.0,-121.0 100.11,-122.65 Z"/>
  </g>

  <!-- R label (GC trigger) -->
  <g transform="translate(121.5 -119) scale(1.7) translate(0 -1)">
    <path fill="#FFF" d="M 1.0 0.0 L 1.0 -0.1 L 1.1 -3.3 L 4.3 -3.2 L 5.1 -3.1 L 5.4 -3.0 L 5.6 -2.9 L 5.7 -2.8 L 5.9 -2.7 L 5.9 -2.6 L 6.0 -2.5 L 6.1 -2.3 L 6.2 -2.2 L 6.2 -2.1 L 6.3 -2.0 L 6.3 -1.9 L 6.2 -0.8 L 6.2 -0.7 L 6.1 -0.6 L 6.1 -0.5 L 6.0 -0.4 L 6.0 -0.3 L 5.9 -0.2 L 5.7 -0.1 L 5.7 0.0 L 5.6 0.1 L 5.4 0.2 L 5.1 0.3 L 4.7 0.4 L 4.7 0.5 L 4.9 0.6 L 5.0 0.7 L 5.2 0.8 L 5.2 0.9 L 5.3 1.0 L 5.5 1.1 L 5.5 1.2 L 5.6 1.3 L 5.7 1.5 L 5.8 1.6 L 5.9 1.8 L 6.0 1.9 L 6.1 2.1 L 6.2 2.2 L 6.2 2.3 L 6.3 2.4 L 6.4 2.6 L 6.5 2.7 L 6.6 2.9 L 6.7 3.0 L 6.7 3.1 L 6.8 3.2 L 6.8 3.3 L 5.3 3.2 L 5.2 3.1 L 5.2 3.0 L 5.1 2.9 L 5.0 2.7 L 4.9 2.6 L 4.8 2.4 L 4.7 2.3 L 4.6 2.1 L 4.5 2.0 L 4.4 1.8 L 4.3 1.7 L 4.1 1.4 L 4.0 1.3 L 3.9 1.1 L 3.8 1.0 L 3.6 0.9 L 3.6 0.8 L 3.5 0.7 L 3.3 0.6 L 2.9 0.5 L 2.3 0.6 L 2.3 0.7 L 2.2 3.3 L 1.0 3.3 L 1.0 0.0 Z M 4.2 -0.5 L 4.4 -0.6 L 4.7 -0.7 L 4.8 -0.8 L 4.9 -1.0 L 5.0 -1.1 L 5.0 -1.2 L 4.9 -1.7 L 4.9 -1.8 L 4.8 -1.9 L 4.8 -2.0 L 4.6 -2.1 L 4.3 -2.2 L 2.3 -2.3 L 2.3 0.6 Z" />
  </g>

  <!-- Z button -->
  <g class="trigger R button">
    <path class="shape" d="M 95.74,-126.41 98.34,-126.38 100.94,-126.24 103.53,-126.01 106.11,-125.7 108.69,-125.32 111.25,-124.87 113.8,-124.34 116.33,-123.73 118.84,-123.05 121.33,-122.3 123.79,-121.47 126.23,-120.56 128.64,-119.58 131.02,-118.51 133.35,-117.37 135.65,-116.14 137.9,-114.84 140.1,-113.46 142.25,-111.99 144.35,-110.45 146.38,-108.82 148.35,-107.13 150.25,-105.35 151.89,-103.38 151.43,-100.86 149.15,-100.15 146.73,-101.06 144.36,-102.12 141.98,-103.18 139.6,-104.23 137.22,-105.29 134.85,-106.35 132.47,-107.41 127.72,-109.53 125.34,-110.58 122.96,-111.64 120.59,-112.7 118.21,-113.76 113.46,-115.88 111.09,-116.94 108.71,-118.0 106.33,-119.06 103.96,-120.12 99.21,-122.23 96.83,-123.29 94.46,-124.35 92.08,-125.41 Z"/>
  </g>

  <!-- Left C-stick -->
  <g class="left-stick" transform="translate(-111,-44)">
    <polygon class="outline" points="0,-36 25.455,-25.455 36,0 25.455,25.455 0,36 -25.455,25.455 -36,0 -25.455,-25.455"/>
    <g class="left-stick-movable" transform="translate(0,0)">
      <circle class="shape" r="26"/>
      <circle class="shape" r="19"/>
      <circle class="shape" r="13.5"/>
      <circle class="shape" r="7.5"/>
    </g>
  </g>

  <!-- Right C-stick -->
  <g class="right-stick" transform="translate(61,37)">
    <polygon class="outline" points=" 0,-26 18.385,-18.385 26,0 18.385,18.385 0,26 -18.385,18.385 -26,0 -18.385,-18.385" />
    <circle class="outer-circle" r="24"/>
    <g class="right-stick-movable" transform="translate(0,0)">
      <circle class="shape" r="15"/>
      <polygon class="label" points="2.86,6.57 0.99,6.94 -0.91,6.87 -2.73,6.31 -4.23,5.14 -5.2,3.51 -5.65,1.66 -5.68,-0.25 -5.31,-2.12 -4.43,-3.81 -3.01,-5.08 -1.24,-5.78 0.66,-5.94 2.54,-5.67 4.33,-5.00 4.63,-3.27 3.37,-3.70 1.6,-4.40 -0.3,-4.50 -2.09,-3.87 -3.34,-2.45 -3.91,-0.63 -3.95,1.27 -3.49,3.12 -2.37,4.64 -0.65,5.44 1.25,5.47 3.06,4.89 4.63,3.92 4.63,5.83"/>
    </g>
  </g>

  <g class="buttons-face">
    <g class="button A" transform="translate(111,-44)">
      <circle class="shape" r="21" />
      <path class="label" fill-rule="evenodd" d="M -1.085 -5.2 L 1.085 -5.2 L 5.085 5.0 L 2.785 5.0 L 1.785 2.65 L -1.785 2.65 L -2.785 5.0 L -5.085 5.0 L -1.4 1.0 L 0.0 -2.8 L 1.4 1.0 L -1.4 1.0 L -5.085 5.0 Z" transform="scale(1.5)"/>
    </g>

    <g class="button B" transform="translate(70,-23)">
      <circle class="shape" r="13"/>
      <path class="label" d="M -4.0 0.0 L -4.0 0.0 L -4.0 -0.1 L -3.8 -5.1 L 1.8 -5.0 L 2.3 -4.9 L 2.6 -4.8 L 2.8 -4.7 L 2.9 -4.6 L 3.1 -4.5 L 3.2 -4.4 L 3.4 -4.3 L 3.4 -4.2 L 3.5 -4.1 L 3.7 -4.0 L 3.7 -3.9 L 3.8 -3.8 L 3.8 -3.7 L 3.9 -3.6 L 3.9 -3.5 L 4.0 -3.4 L 4.0 -3.3 L 4.1 -3.1 L 4.1 -3.0 L 4.0 -2.0 L 4.0 -1.9 L 3.9 -1.7 L 3.9 -1.6 L 3.8 -1.5 L 3.8 -1.4 L 3.7 -1.3 L 3.7 -1.2 L 3.6 -1.1 L 3.6 -1.0 L 3.5 -0.9 L 3.3 -0.8 L 3.3 -0.7 L 3.2 -0.6 L 3.0 -0.5 L 2.9 -0.4 L 2.7 -0.3 L 2.9 -0.2 L 3.2 -0.1 L 3.3 0.0 L 3.5 0.1 L 3.6 0.2 L 3.8 0.3 L 3.9 0.4 L 4.0 0.6 L 4.1 0.7 L 4.3 0.8 L 4.3 0.9 L 4.4 1.0 L 4.4 1.1 L 4.5 1.3 L 4.5 1.4 L 4.6 1.6 L 4.6 1.7 L 4.5 2.8 L 4.5 2.9 L 4.4 3.1 L 4.4 3.2 L 4.3 3.4 L 4.3 3.5 L 4.2 3.6 L 4.2 3.7 L 4.1 3.8 L 4.1 3.9 L 4.0 4.0 L 3.9 4.2 L 3.8 4.3 L 3.6 4.4 L 3.6 4.5 L 3.4 4.6 L 3.3 4.7 L 3.1 4.8 L 2.8 4.9 L 2.6 5.0 L 2.1 5.1 L -4.0 5.0 L -4.0 4.9 L -4.0 0.0 L 1.1 3.4 L 1.1 3.4 L 1.5 3.3 L 1.8 3.2 L 2.0 3.1 L 2.1 3.0 L 2.3 2.9 L 2.3 2.8 L 2.4 2.7 L 2.4 2.6 L 2.5 2.3 L 2.5 2.2 L 2.4 1.7 L 2.4 1.6 L 2.3 1.4 L 2.3 1.3 L 2.2 1.2 L 2.2 1.1 L 2.1 1.0 L 1.9 0.9 L 1.6 0.8 L 1.4 0.7 L -1.9 0.6 L -1.9 0.7 L -1.8 3.4 L 1.1 3.4 L -4.0 0.0 L 0.3 -1.1 L 0.3 -1.1 L 1.3 -1.2 L 1.5 -1.3 L 1.8 -1.4 L 1.8 -1.5 L 1.9 -1.6 L 2.0 -1.8 L 2.0 -1.9 L 2.1 -2.0 L 2.1 -2.1 L 2.0 -2.7 L 2.0 -2.8 L 1.9 -2.9 L 1.9 -3.0 L 1.8 -3.1 L 1.6 -3.2 L 1.6 -3.3 L 1.3 -3.4 L -1.9 -3.3 L -1.9 -3.2 L -1.8 -1.0 L 0.2 -1.1 L 0.3 -1.1 L -4.0 0.0 Z" transform="scale(1.1)"/>
    </g>

    <g class="button X">
      <path class="shape" d="M 142.1,-50.67 142.44,-48.65 142.69,-46.62 142.8,-44.57 143.0,-42.54 143.56,-40.57 144.42,-38.71 145.59,-37.04 147.08,-35.64 148.86,-34.65 150.84,-34.11 152.88,-34.03 154.89,-34.38 156.79,-35.14 158.49,-36.28 159.92,-37.74 161.04,-39.45 161.85,-41.33 162.4,-43.3 162.72,-45.32 162.85,-47.37 162.82,-49.41 162.67,-51.46 162.39,-53.48 162.0,-55.5 161.51,-57.48 160.9,-59.44 160.17,-61.35 159.25,-63.18 158.19,-64.93 157.01,-66.61 155.72,-68.2 154.31,-69.68 152.78,-71.04 151.09,-72.2 149.23,-73.04 147.22,-73.36 145.19,-73.11 143.26,-72.42 141.51,-71.37 140.0,-69.99 138.82,-68.32 138.13,-66.4 138.09,-64.36 138.39,-62.34 139.05,-60.41 139.91,-58.55 140.62,-56.63 141.21,-54.67 141.67,-52.67 Z"/>
      <path class="label" d="M -4.4 -5.0 L -2.0 -5.0 L 0.0 -1.7 L 2.0 -5.0 L 4.4 -5.0 L 1.2 0.0 L 4.4 5.0 L 2.0 5.0 L 0.0 1.7 L -2.0 5.0 L -4.4 5.0 L -1.2 0.0 Z" transform="translate(151 -53) scale(1.1)"/>
    </g>

    <g class="button Y">
      <path class="shape" d="M 104.02,-75.23 106.01,-75.74 108.01,-76.15 110.04,-76.42 112.05,-76.78 113.97,-77.49 115.76,-78.49 117.33,-79.79 118.6,-81.39 119.46,-83.25 119.84,-85.26 119.76,-87.3 119.24,-89.28 118.33,-91.11 117.06,-92.71 115.49,-94.02 113.7,-95.01 111.77,-95.67 109.76,-96.05 107.71,-96.21 105.67,-96.18 103.63,-95.99 101.61,-95.67 99.61,-95.24 97.63,-94.69 95.69,-94.04 93.79,-93.28 91.94,-92.4 90.19,-91.34 88.53,-90.14 86.95,-88.84 85.47,-87.42 84.1,-85.9 82.87,-84.26 81.85,-82.49 81.15,-80.57 81.0,-78.54 81.41,-76.54 82.24,-74.67 83.43,-73.01 84.92,-71.61 86.68,-70.57 88.65,-70.03 90.69,-70.15 92.68,-70.61 94.56,-71.42 96.34,-72.43 98.2,-73.29 100.11,-74.03 102.06,-74.65 Z"/>
      <path class="label" d="M -4.79 -4.9 L -2.44 -4.9 L 0.0 -0.9 L 2.44 -4.9 L 4.79 -4.9 L 1.05 1.0 L 1.05 5.31 L -1.05 5.31 L -1.05 1.0 Z" transform="translate(100 -83) scale(1.1) translate(0 -1)"/>
    </g>
  </g>

  <!-- D-pad (simplified as cross) -->
  <g class="dpad" transform="translate(-61,37)">
    <path class="shape" fill-rule="nonzero" d="M 9.1,-9.1 L 9.1,-30.0 L 8.1,-30.1 L 7.7,-30.1 L -8.6,-30.0 L -9.0,-29.8 L -9.3,-29.5 L -9.5,-29.1 L -9.1,-28.7 L -9.1,-9.1 L -28.7,-9.1 L -29.1,-9.5 L -29.5,-9.3 L -29.8,-9.0 L -30.0,-8.6 L -30.1,-7.7 L -30.1,8.1 L -30.0,9.1 L -9.1,9.1 L -9.1,28.7 L -9.5,29.1 L -9.3,29.5 L -9.0,29.8 L -8.6,30.0 L -7.7,30.1 L 8.1,30.1 L 9.1,30.0 L 9.1,9.1 L 28.7,9.1 L 29.1,9.5 L 29.5,9.3 L 29.8,9.0 L 30.0,8.6 L 30.1,7.7 L 30.1,-8.1 L 30.0,-9.1 L 9.1,-9.1 Z"/>
    <g class="button up" data-id="DUp">
      <path class="shape" d="M 9.1,-9.1 L 9.1,-30.0 L 8.1,-30.1 L 7.7,-30.1 L -8.6,-30.0 L -9.0,-29.8 L -9.3,-29.5 L -9.5,-29.1 L -9.1,-28.7 L -9.1,-9.1 L 0.0,0.6 Z"/>
      <polygon class="label" points="0,-23 -3,-18 3,-18"/>
    </g>
    <g class="button right" data-id="DRight">
      <path class="shape" d="M 9.1,9.1 L 30.0,9.1 L 30.1,8.1 L 30.1,7.7 L 30.0,-8.6 L 29.8,-9.0 L 29.5,-9.3 L 29.1,-9.5 L 28.7,-9.1 L 9.1,-9.1 L -0.6,0.0 Z"/>
      <polygon class="label" points="23,0 18,-3 18,3"/>
    </g>
    <g class="button down" data-id="DDown">
      <path class="shape" d="M -9.1,9.1 L -9.1,30.0 L -8.1,30.1 L -7.7,30.1 L 8.6,30.0 L 9.0,29.8 L 9.3,29.5 L 9.5,29.1 L 9.1,28.7 L 9.1,9.1 L 0.0,-0.6 Z"/>
      <polygon class="label" points="0,23 -3,18 3,18"/>
    </g>
    <g class="button left" data-id="DLeft">
      <path class="shape" d="M -9.1,-9.1 L -30.0,-9.1 L -30.1,-8.1 L -30.1,-7.7 L -30.0,8.6 L -29.8,9.0 L -29.5,9.3 L -29.1,9.5 L -28.7,9.1 L -9.1,9.1 L 0.6,0.0 Z"/>
      <polygon class="label" points="-23,0 -18,-3 -18,3"/>
    </g>
  </g>

  <!-- Start button (small circle) -->
  <g id="start-pause" class="button home">
    <text text-anchor="middle" dominant-baseline="middle" font-family="sans-serif" font-size="9" style="color:#777;" transform="translate(0 -64)">START/PAUSE</text>
    <circle class="shape" cx="0" cy="-44" r="8"/>
  </g>

  <!-- Button labels (ported from configure_input_player_widget.cpp) -->
  <g id="button-labels" fill="#FFF" stroke="none">

    <!-- L: center + QPoint(-132, -119), icon_size = 1.7f, also uses (y - 1.0f) in C++ -->
    <g transform="translate(-132 -119) scale(1.7) translate(0 -1)">
      <path d="M 2.4 -3.23 L 2.4 2.1 L 5.43 2.1 L 5.43 3.22 L 0.98 3.22 L 0.98 -3.23 L 2.4 -3.23 Z"/>
    </g>

  </g>

</svg>
